<?xml version="1.0" encoding="UTF-8" standalone="no"?>
<!-- Generator: Adobe Illustrator 18.1.1, SVG Export Plug-In . SVG Version: 6.00 Build 0)  -->

<svg
   version="1.1"
   id="Layer_1"
   x="0px"
   y="0px"
   width="23.800003"
   height="10"
   viewBox="0 0 23.800003 10"
   enable-background="new 0 0 400 300"
   xml:space="preserve"
   sodipodi:docname="free-icon-set-05.svg"
   xmlns:inkscape="http://www.inkscape.org/namespaces/inkscape"
   xmlns:sodipodi="http://sodipodi.sourceforge.net/DTD/sodipodi-0.dtd"
   xmlns="http://www.w3.org/2000/svg"
   xmlns:svg="http://www.w3.org/2000/svg"><defs
   id="defs39" /><sodipodi:namedview
   id="namedview39"
   pagecolor="#ffffff"
   bordercolor="#000000"
   borderopacity="0.25"
   inkscape:showpageshadow="2"
   inkscape:pageopacity="0.0"
   inkscape:pagecheckerboard="0"
   inkscape:deskcolor="#d1d1d1"
   showgrid="false" />&#10;&#10;&#10;&#10;&#10;&#10;&#10;&#10;&#10;&#10;&#10;&#10;&#10;&#10;&#10;&#10;&#10;&#10;&#10;&#10;&#10;&#10;&#10;&#10;&#10;&#10;&#10;&#10;&#10;&#10;&#10;&#10;&#10;&#10;&#10;&#10;&#10;&#10;&#10;&#10;&#10;&#10;&#10;<path
   fill="#444444"
   d="M 18.8,0 C 17,0 13.8,2.2 11.9,3.7 10,2.2 6.8,0 5,0 2.3,0 0,2.2 0,5 c 0,2.8 2.2,5 5,5 1.8,0 5,-2.2 6.9,-3.7 1.9,1.5 5.1,3.7 6.9,3.7 2.7,0 5,-2.2 5,-5 0,-2.8 -2.3,-5 -5,-5 z M 4.9,8 C 3.3,8 1.9,6.7 1.9,5 1.9,3.3 3.2,2 4.9,2 5.8,2 8.1,3.4 10.2,5 8.1,6.6 5.8,8 4.9,8 Z m 13.9,0 c -0.9,0 -3.2,-1.4 -5.3,-3 2.1,-1.6 4.4,-3 5.3,-3 1.6,0 3,1.3 3,3 0,1.7 -1.4,3 -3,3 z"
   id="path10" /></svg>
