<?xml version="1.0" encoding="UTF-8" standalone="no"?>
<svg
   width="24"
   height="22"
   viewBox="0 0 24 22"
   version="1.1"
   id="svg1"
   sodipodi:docname="wallet.svg"
   inkscape:version="1.3.2 (091e20e, 2023-11-25, custom)"
   xmlns:inkscape="http://www.inkscape.org/namespaces/inkscape"
   xmlns:sodipodi="http://sodipodi.sourceforge.net/DTD/sodipodi-0.dtd"
   xmlns="http://www.w3.org/2000/svg"
   xmlns:svg="http://www.w3.org/2000/svg">
  <sodipodi:namedview
     id="namedview1"
     pagecolor="#ffffff"
     bordercolor="#000000"
     borderopacity="0.25"
     inkscape:showpageshadow="2"
     inkscape:pageopacity="0.0"
     inkscape:pagecheckerboard="0"
     inkscape:deskcolor="#d1d1d1"
     inkscape:zoom="33.590909"
     inkscape:cx="12.012179"
     inkscape:cy="11"
     inkscape:window-width="1920"
     inkscape:window-height="974"
     inkscape:window-x="-11"
     inkscape:window-y="-11"
     inkscape:window-maximized="1"
     inkscape:current-layer="svg1" />
  <defs
     id="defs1">
    <style
       id="style1">
      .cls-1 {
        fill-rule: evenodd;
      }
    </style>
  </defs>
  <path
     id="wallet"
     class="cls-1"
     d="M1090,359h-20a2,2,0,0,1-2-2V339a2,2,0,0,1,2-2h16a2,2,0,0,1,2,2v2h2a2,2,0,0,1,2,2v14A2,2,0,0,1,1090,359Zm-4-20h-16v2h16v-2Zm4,4h-20v14h20V343Zm-5,4a3,3,0,1,1-3,3A3,3,0,0,1,1085,347Zm0,4a1,1,0,1,0-1-1A1,1,0,0,0,1085,351Z"
     transform="translate(-1068 -337)"
     style="fill:#cccccc"
     inkscape:export-filename="wallet.png"
     inkscape:export-xdpi="2000"
     inkscape:export-ydpi="2000" />
</svg>
